<svg width="17" height="12" viewBox="0 0 17 12" fill="none" xmlns="http://www.w3.org/2000/svg">
<path d="M16.0241 4.98565C16.2656 5.30176 16.3863 5.46056 16.3863 5.6943C16.3863 5.92879 16.2656 6.08684 16.0241 6.40295C14.939 7.8247 12.1677 10.8886 8.44314 10.8886C4.71781 10.8886 1.94724 7.82396 0.862207 6.40295C0.620736 6.08684 0.5 5.92804 0.5 5.6943C0.5 5.45981 0.620736 5.30176 0.862207 4.98565C1.94724 3.56389 4.7186 0.5 8.44314 0.5C12.1685 0.5 14.939 3.56464 16.0241 4.98565Z" stroke="url(#paint0_linear_2103_2403)"/>
<path d="M10.8259 5.69439C10.8259 5.10398 10.5749 4.53776 10.128 4.12028C9.68111 3.7028 9.075 3.46826 8.443 3.46826C7.81101 3.46826 7.20489 3.7028 6.75801 4.12028C6.31112 4.53776 6.06006 5.10398 6.06006 5.69439C6.06006 6.2848 6.31112 6.85102 6.75801 7.2685C7.20489 7.68598 7.81101 7.92052 8.443 7.92052C9.075 7.92052 9.68111 7.68598 10.128 7.2685C10.5749 6.85102 10.8259 6.2848 10.8259 5.69439Z" stroke="#575757"/>
<defs>
<linearGradient id="paint0_linear_2103_2403" x1="0.5" y1="5.6943" x2="16.3863" y2="5.6943" gradientUnits="userSpaceOnUse">
<stop stop-color="#882619"/>
<stop offset="1" stop-color="#D4612D"/>
</linearGradient>
</defs>
</svg>
