<svg width="21" height="18" viewBox="0 0 21 18" fill="none" xmlns="http://www.w3.org/2000/svg">
<path d="M0.5 1.71429C0.5 1.39224 0.626328 1.08338 0.851192 0.855656C1.07606 0.627934 1.38104 0.5 1.69905 0.5H18.4857C18.8037 0.5 19.1087 0.627934 19.3335 0.855656C19.5584 1.08338 19.6847 1.39224 19.6847 1.71429C19.6847 2.03633 19.5584 2.34519 19.3335 2.57292C19.1087 2.80064 18.8037 2.92857 18.4857 2.92857H1.69905C1.38104 2.92857 1.07606 2.80064 0.851192 2.57292C0.626328 2.34519 0.5 2.03633 0.5 1.71429ZM0.5 16.2857C0.5 15.9637 0.626328 15.6548 0.851192 15.4271C1.07606 15.1994 1.38104 15.0714 1.69905 15.0714H18.4857C18.8037 15.0714 19.1087 15.1994 19.3335 15.4271C19.5584 15.6548 19.6847 15.9637 19.6847 16.2857C19.6847 16.6078 19.5584 16.9166 19.3335 17.1443C19.1087 17.3721 18.8037 17.5 18.4857 17.5H1.69905C1.38104 17.5 1.07606 17.3721 0.851192 17.1443C0.626328 16.9166 0.5 16.6078 0.5 16.2857ZM8.89332 7.78571C8.57531 7.78571 8.27033 7.91365 8.04546 8.14137C7.8206 8.36909 7.69427 8.67795 7.69427 9C7.69427 9.32205 7.8206 9.63091 8.04546 9.85863C8.27033 10.0864 8.57531 10.2143 8.89332 10.2143H18.4857C18.8037 10.2143 19.1087 10.0864 19.3335 9.85863C19.5584 9.63091 19.6847 9.32205 19.6847 9C19.6847 8.67795 19.5584 8.36909 19.3335 8.14137C19.1087 7.91365 18.8037 7.78571 18.4857 7.78571H8.89332Z" fill="black" stroke="black"/>
</svg>
